<svg id="Layer_1" enable-background="new 0 0 512 512" height="512" viewBox="0 0 512 512" width="512" xmlns="http://www.w3.org/2000/svg"><g><path d="m128 195.75h32v64h-32z" fill="#efc17a"/><path d="m128 235.75h32v24h-32z" fill="#ff9d87"/><path d="m128 243.75h-32v192h-96v-32h64v-192h64" fill="#b6e6fa"/><g fill="#6e91ef"><path d="m0 435.75h96s0-13.556 0-16h-96z"/><path d="m96 243.75h32v-16h-32z"/></g><path d="m400 219.75v-32c0-66.274-53.726-120-120-120-66.274 0-120 53.726-120 120v81.245c0 25.27 7.48 49.975 21.498 71.002l26.502 39.753v72h112v-64h16c35.346 0 64-28.654 64-64v-40h32v-16z" fill="#ffdecf"/><g><g><path d="m248 308.25h16v15h-16z" fill="#fff"/></g><g><path d="m280 308.25h16v15h-16z" fill="#fff"/></g><g><path d="m312 308.25h16v15h-16z" fill="#fff"/></g></g><path d="m212 223.75 20 20 36-36v-4h-36z" fill="#d571ab"/><path d="m224 211.75 20 20 24-24v-4h-36z" fill="#923ec3"/><path d="m208 427.75h112v24h-112z" fill="#ffcdbe"/><path d="m359.952 178.219c-.64-10.311-7.974-18.952-17.648-21.61 1.377-3.465 1.981-7.321 1.567-11.363-1.181-11.524-10.726-20.702-22.286-21.445-6.803-.437-13.045 1.963-17.661 6.13-.93-12.404-11.282-22.182-23.924-22.182s-22.994 9.777-23.924 22.181c-4.615-4.166-10.856-6.567-17.657-6.131-11.558.741-21.103 9.914-22.289 21.434-.416 4.04.186 7.895 1.56 11.359-10.44 2.839-18.053 12.542-17.677 23.966.429 13.025 11.495 23.19 24.527 23.19h111.46c13.762.002 24.818-11.581 23.952-25.529z" fill="#d571ab"/><path d="m358.628 171.768c-3.3 9.312-12.185 15.982-22.628 15.982h-111.46c-10.525 0-19.767-6.629-23.159-16.041-.979 2.753-1.47 5.738-1.368 8.852.429 13.025 11.495 23.19 24.527 23.19h111.46c13.762 0 24.818-11.583 23.952-25.531-.139-2.246-.595-4.411-1.324-6.452z" fill="#923ec3"/><g><path d="m232 254.356 43.5-43.5v-14.606h-52.626c-4.938 0-11.495-4.077-13.492-8.389-3.71-8.012-1.155-14.075.699-16.977 3.054-4.78 8.258-7.634 13.919-7.634 9.098 0 16.5 7.402 16.5 16.5h15c0-17.369-14.131-31.5-31.5-31.5-.164 0-.328.001-.492.004-.005-.168-.008-.336-.008-.504 0-9.098 7.402-16.5 16.5-16.5s16.5 7.402 16.5 16.5h15c0-7.727-2.797-14.814-7.432-20.3 1.896-7.02 8.321-12.2 15.932-12.2s14.035 5.18 15.932 12.2c-4.635 5.486-7.432 12.573-7.432 20.3h15c0-9.098 7.402-16.5 16.5-16.5s16.5 7.402 16.5 16.5c0 .168-.003.336-.008.503-8.243-.137-16.026 2.868-22.061 8.54-6.311 5.932-9.931 14.299-9.931 22.957h15c0-4.602 1.848-8.873 5.204-12.026 3.351-3.15 7.739-4.728 12.363-4.44 8.131.504 14.895 7.269 15.4 15.4.287 4.621-1.29 9.011-4.44 12.363-3.154 3.355-7.425 5.204-12.027 5.204h-44v15h44c8.658 0 17.026-3.62 22.957-9.931 6.015-6.4 9.027-14.77 8.48-23.565-.685-11.041-7.069-20.545-16.243-25.606.203-1.45.305-2.919.305-4.398 0-17.369-14.131-31.5-31.5-31.5-4.043 0-7.911.766-11.466 2.16-5.031-10.719-15.93-18.16-28.534-18.16s-23.502 7.441-28.534 18.16c-3.555-1.394-7.423-2.16-11.466-2.16-17.369 0-31.5 14.131-31.5 31.5 0 1.476.102 2.94.304 4.387-4.541 2.499-8.461 6.129-11.363 10.671-5.966 9.337-6.574 20.767-1.67 31.356 3.38 7.297 11.091 13.389 19.329 15.879l-13.706 13.706zm3.106-43.106h18.787l-21.893 21.894-9.394-9.394z"/><path d="m407.5 323.75v-32.5h32v-25.771l-32-48v-29.729c0-70.304-57.196-127.5-127.5-127.5s-127.5 57.196-127.5 127.5v.5h-32v16h-64v192h-56.5v15h24.5v17h-24.5v15h103.5v-192h17v16h32v1.745c0 5.123.287 10.214.854 15.255h-17.354c-8.547 0-15.5 6.953-15.5 15.5v32c0 8.547 6.953 15.5 15.5 15.5h16c.276 0 .5.224.5.5v16.5h-16.5c-8.547 0-15.5 6.953-15.5 15.5v48c0 8.547 6.953 15.5 15.5 15.5h48v-15h-48c-.276 0-.5-.224-.5-.5v-48c0-.276.224-.5.5-.5h16.5v16.5c0 8.547 6.953 15.5 15.5 15.5h32.5v40.5h15v-74.271l-27.762-41.643c-13.24-19.86-20.238-42.973-20.238-66.842v-81.244c0-62.033 50.467-112.5 112.5-112.5s112.5 50.467 112.5 112.5v34.271l32 48v6.229h-32v47.5c0 31.154-25.346 56.5-56.5 56.5h-64v15h64c39.425 0 71.5-32.075 71.5-71.5zm-336 76.894v-21.394h17v38.394zm17-36.394h-17v-33h17zm0-48h-17v-33h17zm0-48h-17v-38.394l17 17zm-49 143h21.394l17 17h-38.394zm59.606-175-17-17h38.394v17zm36.394 16v-49h17v49zm65 144h-32.5c-.276 0-.5-.224-.5-.5v-16.5h31.153l1.847 2.771zm-25.243-52.093 13.395 20.093h-21.152v-16.5c0-8.547-6.953-15.5-15.5-15.5h-16c-.276 0-.5-.224-.5-.5v-32c0-.276.224-.5.5-.5h19.903c3.64 15.923 10.158 31.113 19.354 44.907z"/><path d="m312.5 411.75h15v40h-15z"/><path d="m495.5 436.216v-48.466h-15v48.466h-17v-72.466h-15v72.466h-17v-32.466h-15v32.466h-13.395l-37.804-37.772-10.602 10.612 42.196 42.16h115.105v-15z"/><path d="m146.699 129.056 10.602-10.612-42.196-42.16h-115.105v15h108.895z"/><path d="m16 108.25h16v15h-16z"/><path d="m48 108.25h16v15h-16z"/><path d="m32 140.25h16v15h-16z"/><path d="m64 140.25h16v15h-16z"/><path d="m80 108.25h16v15h-16z"/></g></g></svg>